<?xml version="1.0" encoding="utf-8"?>
<!-- Generator: Adobe Illustrator 26.3.1, SVG Export Plug-In . SVG Version: 6.00 Build 0)  -->
<svg version="1.1" id="Layer_1" xmlns="http://www.w3.org/2000/svg" xmlns:xlink="http://www.w3.org/1999/xlink" x="0px" y="0px"
	 viewBox="0 0 135 439.7" style="enable-background:new 0 0 135 439.7;" xml:space="preserve">
<style type="text/css">
	.st0{fill:#FFB27D;}
	.st1{fill:#1A2E35;}
	.st2{fill:#E0EAEF;}
	.st3{opacity:0.3;}
	.st4{fill:#8C9DF4;}
	.st5{fill:#0036A2;}
	.st6{fill:#004FEE;}
	.st7{fill:#99B9F8;}
	.st8{fill:#D1D5D7;}
	.st9{fill:#FFAE73;}
	.st10{fill:#BF8256;}
	.st11{fill:#ECF6FC;}
	.st12{fill:#DBDEDF;}
	.st13{fill:#FFFFFF;}
</style>
<g>
	<g>
		<path class="st0" d="M5.6,218.6c0,0-4.5,15.7-3.4,19.6c1.1,3.9,5.8,11.2,7.9,11c2.1-0.3,0-25.1,0-25.1L5.6,218.6z"/>
	</g>
	<g>
		<path class="st1" d="M67,2.5c-8.4-4.4-15.2-1.6-15.2-1.6c-25.7-3-33.3,27-32.9,37.3C19.3,48.5,20.5,59.6,9,73
			c-33.2,38.8,36.3,40.5,36.3,40.5c0.6-31,37.7-19.7,36.1-16.5C129,108.4,86.2,12.4,67,2.5z"/>
	</g>
	<g>
		<path class="st2" d="M2.2,223.3c0,0,0.4,1.9,4.3,2.8c1.8,0.4,4.4,0.7,8,0.4c0.8-0.1,1.6-0.1,2.5-0.2c1.7-0.2,3.5-0.5,5.5-0.8
			L21,140.3l6-66.5c0,0-12.8,6.1-19.1,25.7c-4.8,15.1-5.6,80-5.7,109.3C2.1,217.7,2.2,223.3,2.2,223.3z"/>
	</g>
	<g class="st3">
		<path class="st4" d="M2.2,223.3c0,0,0.4,1.9,4.3,2.8c1.8,0.4,4.4,0.7,8,0.4l-1.2-63.4c0,0-0.9,34.6-11.1,45.7
			C2.1,217.7,2.2,223.3,2.2,223.3z"/>
	</g>
	<g>
		<path class="st1" d="M128.5,403.4c0,0,7.8,7.1,6.3,12.2c-1.5,5.1-8.6,8.4-9.5,14.6c-1,6.2-4.8,9.5-8.2,9.5c-3.4,0-16.3,0-16.3,0
			s-2.5-4.3,3.6-5.7c6.1-1.3,8.4-8.6,8-15.3c-0.4-6.7,0.6-15.7,0.6-15.7l12.9-3L128.5,403.4z"/>
	</g>
	<g>
		<path class="st1" d="M62.5,406.4c0,0,2.8,30.1-0.6,31.8l-43.8-0.1c0,0,0-5.1,7-6.2c7-1.1,19.4-5.2,21.5-14.4
			C48.7,408.4,62.5,406.4,62.5,406.4z"/>
	</g>
	<g>
		<path class="st5" d="M26.8,159.1c0,0-12.6,39.3-13.4,52.7C12.5,225.2,37.5,401.9,38.5,408c0.9,5.8,8.2,9.5,8.2,9.5s3.3,2,8.1,0.6
			c6.6-1.9,8.7-4.1,8.7-4.1s9.8-126,3.7-171c-6.1-45-6.2-83.9-6.2-83.9H26.8z"/>
	</g>
	<g>
		<path class="st6" d="M80.3,157.9c0,0,19.3,25.8,21.1,43.3c1.8,17.5,2.8,78.8,6.6,95.9c3.8,17,17.9,49.8,17.9,102.9
			c0,0-1.5,3-6,4.7c-1.4,0.5-3.4,1-5.3,1.5c-3.7,0.9-7.5-1-9.2-4.4c-9.5-19.1-39.8-80.8-41.3-93.6c-1.1-9.1-7.5-63.5-28.4-98.7
			c-5-8.5-4.7-45.3-4.7-45.3L80.3,157.9z"/>
	</g>
	<g>
		<path class="st7" d="M96.2,107.3c0,0,0.7,9.2,0,20.2c-0.4,7.3-7.8,17.1-8.9,19.5c-2.6,6.1-5.6,7.1-5.6,7.1l-23,5.6l-1.9,12.3
			c0,0-19.3,8.2-32.7-4.5c-11.6-11.1-10.6-45.8-5.9-64.1C22.8,85.3,30,72.6,30,72.6s17.3-6.8,47.9-1.7L96.2,107.3z"/>
	</g>
	<g>
		<path class="st2" d="M69.6,69c0,0,9.7,1.6,15.6,3.6l4.3,53H49.5l15-39.4L69.6,69z"/>
	</g>
	<g>
		<path class="st2" d="M49.5,125.6l4.4,163.3c0,0,21.9,10.4,63.7,0L106.8,115L49.5,125.6z"/>
	</g>
	<g>
		<path class="st8" d="M117,163.5l-29.6,25.7c-2.1,1.9-5.4,1.6-7.2-0.5l-37.7-43.3c-1.9-2.1-1.6-5.4,0.5-7.2l29.6-25.7
			c2.1-1.9,5.4-1.6,7.2,0.5l37.7,43.3C119.4,158.4,119.2,161.7,117,163.5z"/>
	</g>
	<g>
		<path class="st9" d="M73.3,160.3c-0.4,0.1-15.7,1.9-15.7,5.1c0,3.7,4.5,8.5,8.7,8.3c1.7-0.1,9.6-7.3,9.6-7.3L73.3,160.3z"/>
	</g>
	<g>
		<path class="st9" d="M65.5,69.2c-1.7-4.2-2.8-10.6-2.7-18.6l-1.2,0.2l-19.4,3.8c0,0,0.4,6.1,0.5,11.9c0,0,0,0.1,0,0.1
			c0,5-3.4,10,4.6,12C49.7,79.3,69.1,78.1,65.5,69.2z"/>
	</g>
	<g>
		<path class="st10" d="M42.2,54.7c0,0,0.4,6.1,0.5,11.9c10.9-0.3,16.6-10.2,19-15.7L42.2,54.7z"/>
	</g>
	<g>
		<path class="st9" d="M38.5,60.1c0,0,25.7,0.4,25.7-15.6c0-16,3.3-26.7-13.1-27.7C34.8,15.9,31.6,22,30.3,27.4
			C29,32.7,31.8,59.6,38.5,60.1z"/>
	</g>
	<g>
		<path class="st1" d="M39.5,16.5c0,0,7,18.8,17.8,21.6c10.8,2.8,15.5-0.1,15.5-0.1s-8.3-6.6-10-18.1C62.8,19.9,44.8,7.5,39.5,16.5z
			"/>
	</g>
	<g>
		<path class="st1" d="M41.2,18c0,0-5.2,2-7.4,5.8c-2.1,3.7-3.9,8.7-3.5,14.7c0,0-5.3-12.8,0.7-20C37.4,10.8,41.2,18,41.2,18z"/>
	</g>
	<g>
		<path class="st9" d="M73.3,160.3c0,0-3.7-1.2-6.1-0.8c-2.4,0.3-4.3,0-4.3,0.6c0,0.7,3.2,1,3.8,1.3
			C67.4,161.7,73.3,160.3,73.3,160.3z"/>
	</g>
	<g>
		<path class="st2" d="M77.9,70.9c0,0,18.2,1.3,25.2,18.3c7,17,20.3,45.5,20.3,50.3c0,4.8-7.4,19.6-47.2,28.1c0,0-4.1-4.3-3.9-7.8
			c0,0,24.8-21.3,24.8-23.8c-0.1-4.7-4.1-10.9-25.9-32.8C65.2,97.3,77.9,70.9,77.9,70.9z"/>
	</g>
	<g>
		<path class="st11" d="M58.6,97.6c0,0,6.8-18.7,5.5-32.8c0,0,5.3,1.3,8.1,5.3c0,0,1.3,21.6-2.7,31.6c0,0-5.8,0.3-7.1-0.4
			c0,0,2.5,4.3,2.2,4.8c-0.4,0.5-15,19.6-15,19.6L58.6,97.6z"/>
	</g>
	<g>
		<path class="st2" d="M28.3,117.2l-4.3,168c0,0-10.2,0.4-16.1-5.9l5.4-182c0,0,5.6-21.9,16.7-24.7C41,69.8,41,69.8,41,69.8
			L28.3,117.2z"/>
	</g>
	<g>
		<path class="st11" d="M42.6,66.6c0,0,0,2.6-0.7,7.3c-1.8,12.6-15.3,38-13.8,49.3c0,0-1.4-19.7-1.4-23.9l3.9-2.7l-5.1-2.1
			C25.6,94.4,35.1,70.7,42.6,66.6z"/>
	</g>
	<g>
		
			<rect x="62.9" y="222.8" transform="matrix(-0.9974 7.236798e-02 -7.236798e-02 -0.9974 180.0444 442.8757)" class="st11" width="38.1" height="3.9"/>
	</g>
	<g>
		<path class="st12" d="M101.2,225.3c0,0,2.8,23.6,0,25.7c-2.8,2.2-31.7,4.9-34.4,2.7c-2.7-2.2-3.6-25.7-3.6-25.7L101.2,225.3z"/>
	</g>
	<g>
		<path class="st13" d="M46.5,51.4c0,0-1.7,2.5-5.4,2.8c-2.2,0.1-4-2.3-4-2.3S40.9,50.2,46.5,51.4z"/>
	</g>
</g>
</svg>
