<?xml version="1.0" encoding="utf-8"?>
<!-- Generator: Adobe Illustrator 25.2.0, SVG Export Plug-In . SVG Version: 6.00 Build 0)  -->
<svg version="1.1" id="Layer_1" xmlns="http://www.w3.org/2000/svg" xmlns:xlink="http://www.w3.org/1999/xlink" x="0px" y="0px"
	 viewBox="0 0 180 180" style="enable-background:new 0 0 180 180;" xml:space="preserve">
<style type="text/css">
	.st0{fill:#359427;}
</style>
<g>
	<path class="st0" d="M163.9,94.6v73.5c0,3.7-0.9,6.4-3.7,8.3c-2.8,1.8-5.5,3.7-8.3,3.7H28c-3.7,0-6.4-0.9-8.3-3.7s-3.7-4.6-3.7-8.3
		V94.6c0-3.7,0.9-6.4,3.7-8.3c2.8-2.8,5.5-4.6,8.3-4.6h3.7V56.9c0-15.6,5.5-29.4,16.5-40.4C61.1,5.5,73.9,0,89.5,0
		s29.4,5.5,40.4,16.5s16.5,24.8,16.5,40.4v24.8h3.7c3.7,0,6.4,0.9,8.3,3.7C162.1,88.2,163.9,90.9,163.9,94.6z M57.4,81.7h65.2V56.9
		c0-9.2-2.8-16.5-9.2-23c-6.4-6.4-14.7-9.2-23.9-9.2S73,27.6,66.6,34s-9.2,13.8-9.2,23C57.4,57,57.4,81.7,57.4,81.7z"/>
</g>
</svg>
