<?xml version="1.0" encoding="utf-8"?>
<!-- Generator: Adobe Illustrator 26.3.1, SVG Export Plug-In . SVG Version: 6.00 Build 0)  -->
<svg version="1.1" id="Layer_1" xmlns="http://www.w3.org/2000/svg" xmlns:xlink="http://www.w3.org/1999/xlink" x="0px" y="0px"
	 viewBox="0 0 164.5 439.7" style="enable-background:new 0 0 164.5 439.7;" xml:space="preserve">
<style type="text/css">
	.st0{fill:#1A2E35;}
	.st1{fill:#E0EAEF;}
	.st2{fill:#0036A2;}
	.st3{fill:#004FEE;}
	.st4{fill:#99B9F8;}
	.st5{fill:#FFAE73;}
	.st6{fill:#BF8256;}
	.st7{fill:#DBDEDF;}
	.st8{fill:#D1D5D7;}
	.st9{fill:#ECF6FC;}
	.st10{fill:#FFFFFF;}
</style>
<g>
	<g>
		<g>
			<path class="st0" d="M41.4,438.9h24.3c-0.2-1.3-0.8-5.1-1.9-8.7c-0.4-1.2-0.9-2.4-1.4-3.5C60,422,45,425,45,425s-1.4,1.2-2.5,5.8
				C42.1,432.8,41.7,435.4,41.4,438.9z"/>
		</g>
		<g>
			<path class="st1" d="M86,66.6c0,0,19.3,3.4,23.7,14.8c4.4,11.4,29.1,195.8,29.1,195.8s-12.2,9.7-38.5,6.2C74,280,86,66.6,86,66.6
				z"/>
		</g>
		<g>
			<path class="st0" d="M114.8,432c0.1,3.3,0.5,6.4,1.7,7.7h48c-0.6-1.7-2.3-4.4-7.3-5.1c-5.6-0.9-14.3-3.6-19.4-9
				c-1.8-1.9-3.2-4.2-3.8-6.8c-2.3-10.1-18.7,3.1-18.7,3.1S114.7,427.1,114.8,432z"/>
		</g>
		<g>
			<path class="st2" d="M135.5,424.9c-5.4,1.7-15.6,6.9-22.1,4.5c-4.2-1.6-27.7-69.7-29.3-99.4c-0.1-2.2-0.5-5.2-1.2-8.9
				c-1.4-7.7-3.8-18.2-6.6-29.9c-7.5-31.2-17.7-70.3-17.5-82.8c0.3-19.4,57.7-4.1,57.7-4.1s3.9,15.9,4.7,38.9
				c1.6,45.7,5.8,122.8,17.5,176.4C139.2,421.9,137.7,424.2,135.5,424.9z"/>
		</g>
		<g>
			<path class="st3" d="M95.6,208.4L65.3,428.4c0,0-13.3,3.2-23.7,0.6c0,0-8.9-117-8.1-145.2c0.7-28.3-6.4-75.7,1.6-80.9
				C43.1,197.6,95.6,208.4,95.6,208.4z"/>
		</g>
		<g>
			<path class="st4" d="M31.2,76.7c0,0,31.9-20.6,54.8-10.1c3.6,1.7,7.8,6.4,10.8,9.6c8.3,9.1,24.4,153.8,24.4,153.8
				s-45.9,15.5-90-5.3V76.7z"/>
		</g>
		<g>
			<path class="st1" d="M87.8,66.1c0,0,32.3,13.2,36.7,23.4c4.4,10.2,18.6,72.6,18.6,79.9c0,7.3-24.7,1.6-28.7-10.2
				c-3.3-9.8-14.5-39.9-20.3-59L87.8,66.1z"/>
		</g>
		<g>
			<g>
				<path class="st5" d="M81.1,76.2c-7,1.4-17.4-0.1-25-5.1c3.4-8.2,4.8-14.6,5.3-18.8c0-0.2,0.1-0.4,0.1-0.6
					c0.2-2.2,0.2-3.6,0.1-4.3h18.2c0,0,5,2.3,5,3.9c0,0.8,0,1.6,0,2.4c0,2.1,0.1,3.9,0.2,5.5c0.3,5.1,0.9,7.5,0.9,7.5
					S88.2,74.8,81.1,76.2z"/>
			</g>
			<g>
				<path class="st6" d="M85.1,59.1c-13.8,2.7-21.8-4.9-23.6-6.8c-0.3-0.3-0.4-0.4-0.4-0.4c0.1-0.1,0.3-0.1,0.5-0.2
					c5.1-2.1,16.8-0.4,23.3,2C84.9,55.7,85,57.5,85.1,59.1z"/>
			</g>
			<g>
				<path class="st5" d="M56.9,44.4c2.5,13.3,19.6,12.8,27,12c2.1-0.2,3.4-0.5,3.4-0.5c2.3-0.6,3.7-4.3,4.3-9.2
					c1.2-9.6-0.3-23.7-1.9-27.3c-2.4-5.4-7-11.3-24.3-7.1C48.1,16.6,53.8,27.3,56.9,44.4z"/>
			</g>
			<g>
				<path class="st0" d="M90.3,12c-2.4-3.3-7.4-7.3-11.9-9.7C68.7-3,56.2,2.5,56.1,2.5C42,8.7,38.3,19.5,45.8,36.3
					C53.7,54,61.2,52,61.2,52s-1.6-1-1.5-6.5c0-0.3,0-0.6,0-0.8c0.1-1.1-0.3-2.3-1.2-3c-1.7-1.6-2.6-6.3-1.1-7.6
					c1.8-1.6,4.3,0.3,5,1.8c0.7,1,1.9,1.4,3.1,0.7c4.4-2.8,1.5-8.3,5.7-11.7c4.2-3.4,12.7-0.5,19-3.2C98.6,18.5,92.1,14.5,90.3,12z"
					/>
			</g>
		</g>
		<g>
			<path class="st1" d="M92.3,290.8c-2.8,0.7-5.5,1.3-8.3,1.8c-2.4,0.4-4.8,0.7-7.2,0.9c-13.6,1.2-27.4-0.7-43.4-5.3
				c-3.6-1-7.3-2.2-11.2-3.5c-0.4-0.1,1.1-42.5,2.7-86.2c0.2-4.5,0.3-9,0.5-13.5c0.1-1.9,0.1-3.8,0.2-5.7
				c1.5-38.7,3.1-73.6,3.4-75.4c0.7-4.3,1.4-7.9,2.2-11c2.2-9.2,4.9-14.2,10.8-18.5c0.6-0.4,5.3-2.8,9.5-4.9
				c3.5-1.7,6.5-3.2,6.5-3.2c0,0,0,0,0,0c1.4,0.7,3,3.8,4.8,8.2c3.2,8.1,6.6,20.6,9,29.9c0,0,0,0,0,0c0,0,0,0,0,0
				c1.5,6,2.6,10.7,2.9,12c0.5,2.3,1.2,6.7,2.1,12.6c1.1,8.1,2.5,19.1,3.9,31.6c0.1,1.3,0.3,2.6,0.4,3.9c0.2,1.5,0.3,3,0.5,4.5
				c0.1,0.5,0.1,1,0.2,1.5c0.5,4.9,1.1,10.1,1.6,15.2c0.5,4.3,7,7.4,7.4,11.8c0.3,2.6,0.8,26.2,1.5,33.7
				C92.8,236.7,92.5,288.3,92.3,290.8z"/>
		</g>
		<g>
			<path class="st7" d="M45.2,119.4c0,0.1-1.1,39.1,28.2,43.8c29.3,4.7,9.8,6,9.8,6s-55.2-2.3-56.1-3.8
				C26.3,163.9,45.2,119.4,45.2,119.4z"/>
		</g>
		<g>
			<path class="st7" d="M70,179.9c0,0-0.5,0.4-1.6,1.1c0,0,0,0-0.1,0c-4.5,2.9-17.8,10.6-37.1,15.9c-2,0.6-4.1,1.1-6.3,1.6
				c0.2-4.5,0.3-9,0.5-13.5c-2.6-0.2-5-0.5-7.3-1c0.1-0.6,0.2-1.2,0.2-1.8c2.5-1,4.9-2,7.3-2.9c1.9-0.8,3.8-1.5,5.5-2.1
				c7.9-3,13.8-5.1,13.8-5.1l23.5,7.4L70,179.9z"/>
		</g>
		<g>
			<path class="st1" d="M76.2,179.3c0,0-3,0.8-7.8,1.7c0,0,0,0-0.1,0c-8.9,1.8-23.8,4.3-37.1,4.1c-2,0-3.9-0.1-5.8-0.2
				c-2.6-0.2-5-0.5-7.3-1c-4.9-1-8.9-2.8-11.6-5.5c-19.8-20.2,10.8-92.6,17.3-99.7c7.5-8.2,21.2-11.1,28.8-12.1
				c0.3,0,0.6-0.1,0.9-0.1c2.7-0.3,4.4-0.4,4.5-0.4c0,0,0,0,0,0s-0.6,1.9-1.6,5.1c-0.4,1.3-0.8,2.7-1.3,4.3
				c-4.7,15.2-13.6,45.2-17.6,62.1c-1.5,6.2-2.2,10.6-1.9,11.9c1.5,5.8,17.6,8.7,27.7,10c4.2,0.5,7.4,0.8,8.2,0.9c0.1,0,0.1,0,0.1,0
				l0.6,2.4l1.4,5.8l1.4,5.7L76.2,179.3z"/>
		</g>
		<g>
			<polygon class="st8" points="131.5,214 63.4,211.1 77.2,126.3 145.3,129.2 			"/>
		</g>
		<g>
			<path class="st5" d="M71.7,160.6c0,0,13.2-0.9,13.9,2.2c1.5,7.2-11.4,13.1-15.6,12.7C65.8,175,68.6,160.1,71.7,160.6z"/>
		</g>
		<g>
			<path class="st5" d="M141.6,146.4c0,0-12.7-4-14-1.1c-3.2,6.6,8,15.4,12.2,16C143.9,161.8,144.6,146.7,141.6,146.4z"/>
		</g>
		<g>
			<path class="st9" d="M59.4,61.9c0,0-5.6,2.7-8.4,6.7c0,0,20.8,36.2,20.7,35.8C71.7,104.1,64.7,66.5,59.4,61.9z"/>
		</g>
		<g>
			<path class="st9" d="M85.3,62.4c1.8,0.7,5.4,4.3,6.1,6.3l2.5,31.6c0,0-5.3-23.2-8-33.6C85.3,64,85.4,63.2,85.3,62.4z"/>
		</g>
		<g>
			<path class="st0" d="M99.8,127.3c0,0,0.5-2.4,3.6-2.1c3.1,0.3,20.5,1.1,20.5,1.1s3.4-0.1,3,2.1L99.8,127.3z"/>
		</g>
		<g>
			<path class="st10" d="M79.8,47.3c0,0,2.3,2.1,5.9,1.4c2.2-0.4,3.4-3.2,3.4-3.2S84.9,44.8,79.8,47.3z"/>
		</g>
	</g>
	<g>
		<rect x="39.7" y="91.7" class="st10" width="17.6" height="7.9"/>
	</g>
</g>
</svg>
