<?xml version="1.0" encoding="utf-8"?>
<!-- Generator: Adobe Illustrator 26.3.1, SVG Export Plug-In . SVG Version: 6.00 Build 0)  -->
<svg version="1.1" id="Layer_1" xmlns="http://www.w3.org/2000/svg" xmlns:xlink="http://www.w3.org/1999/xlink" x="0px" y="0px"
	 viewBox="0 0 280.5 207.6" style="enable-background:new 0 0 280.5 207.6;" xml:space="preserve">
<style type="text/css">
	.st0{fill:#E8945B;}
	.st1{fill:#1A2E35;}
	.st2{fill:#494949;}
	.st3{fill:#6E6E6E;}
	.st4{fill:#FFAE73;}
	.st5{fill:#F07818;}
	.st6{fill:#B45A12;}
	.st7{fill:#BF8256;}
	.st8{fill:#FFB27D;}
	.st9{fill:#ED7D2B;}
	.st10{fill:#0036A2;}
	.st11{fill:#004FEE;}
	.st12{fill:#003BB3;}
	.st13{fill:#EBF2F9;}
	.st14{fill:#FFFFFF;}
	.st15{fill:#99B9F8;}
	.st16{fill:#ADC7F9;}
	.st17{fill:#738BBA;}
	.st18{fill:#9DDEDA;}
	.st19{fill:#D1D5D7;}
	.st20{fill:#E0EAEF;}
	.st21{fill:#DBDEDF;}
	.st22{fill:#ECF6FC;}
	.st23{fill:#818181;}
	.st24{fill:#9A9A9A;}
	.st25{fill:#D9D9D9;}
	.st26{fill:#F4F4F4;}
	.st27{fill:#353535;}
	.st28{fill:#1E3865;}
	.st29{fill:#FDE9DA;}
	.st30{fill:#FDDCC3;}
	.st31{fill:#F99352;}
	.st32{fill:#444444;}
	.st33{fill:#F09954;}
	.st34{fill:#203942;}
	.st35{fill:#4D4D4D;}
	.st36{fill:#A7A7A7;}
	.st37{fill:#E8F2FA;}
	.st38{fill:#F39346;}
</style>
<g>
	<g>
		<path class="st0" d="M86.1,26.3c0,0,7.4,3.5,9.1,3.1c1.7-0.4,8.1-1.6,9-1.2c0,0,1,1.6,0.2,2.7s-7,4-9.2,4.1
			c-2.2,0.1-10.8-1.4-12.6-2.9L86.1,26.3z"/>
		<path class="st0" d="M103.9,28.2c0,0,2.9-1.2,3.8,0.1c0.9,1.3,1.5,2.7,1.3,3.3c-0.1,0.7-2,1-2.8,0.4c-0.8-0.5-2.7-1.3-2.7-1.3
			L103.9,28.2z"/>
	</g>
	<path class="st1" d="M117.6,194.3c0,0-1.6,2.5-1.6,5.5c0,0.7,0.5,1.2,1.2,1.2h9.8c1,0,1.7-0.9,1.4-1.8c-0.5-1.8-1.4-4.5-3.4-6.2
		C121.8,190.4,117.6,194.3,117.6,194.3z"/>
	<path class="st1" d="M102,191.7c0,0-0.6,9.1-2.3,9.2c-0.2,0-8.9,0-8.9,0l-11.2,0c0,0,0.2-2.7,3.4-3.3c3.2-0.6,8.7-2.8,10.6-7.1
		C95.7,186,102,191.7,102,191.7z"/>
	<g>
		<path class="st2" d="M106.7,135.5c-0.4,5.1-0.4,9,0.1,10.9c2.3,8.5-4.2,46.7-4.2,46.7c-4.8,2.3-11.6,0-11.6,0
			c0.4-5.3-2.1-52.7-4.4-81.6c-1-12.1-1.7-20.6-1.7-20.6l28.7-3.3C113.5,87.5,108.1,117.9,106.7,135.5z"/>
		<path class="st2" d="M113.5,87.5c0,0-5.5,30.4-6.8,48l-20.1-24c-1-12.1-1.7-20.6-1.7-20.6L113.5,87.5z"/>
	</g>
	<path class="st3" d="M99.5,94c0,0,14.5,84.5,17,100.8c0,0,5.4,1.5,11-0.8c0,0,0.7-39.2-1.2-51.1c-1.9-11.8,1-48.4-2-51.8
		C121.2,87.7,99.5,94,99.5,94z"/>
	<path class="st4" d="M101,21.9c0,0-1.1,7.5-0.6,9.7c0.5,2.2,7.9,3.5,11.1,1.6c3.1-1.9,2.2-2.5,2.2-2.5s-0.5-8.6-0.9-9.2
		C112.2,20.9,101,21.9,101,21.9z"/>
	<path class="st5" d="M125,67.7c1-9.4,0.7-16.5-0.2-21.9c-2.7-15.7-11.3-16.2-11.3-16.1c0,2.1-4.5,4.1-8.2,3.8
		c-3.1-0.2-5.1-2.5-5.1-3.8c0,0-0.1,0-0.2,0c-0.8,0-4.5,0.1-7.9,0.7c-2.5,0.4-4.9,1.1-6,2.3c-0.6,0.6-2.7,2.3-5.3,4.6
		C74,43.3,63.4,53.1,63.9,58.9c0,0,13.1,9.6,21.4,3.6c-0.5,15.7-3.3,32.3-2.6,32.3c0,0,4.6,4,18.7,4c7.7,0,13.3-0.7,17.1-1.4
		c5.3-1,7.4-2.3,7.4-2.3C127.1,95.1,124.6,71,125,67.7z"/>
	<path class="st6" d="M125.9,95.1c0,0-2.1,1.2-7.4,2.3c-7.3-3.2-21.7-11.6-22.3-25.5c-0.7-18.6,22-29.7,22-29.7s3,1.7,6.5,3.7
		c0.9,5.3,1.2,12.4,0.2,21.9C124.6,71,127.1,95.1,125.9,95.1z"/>
	<path class="st7" d="M100.9,22.8c0,0,2.9,4.1,6,4.1c3.1,0,6.2-4,6.2-4L100.9,22.8z"/>
	<path class="st4" d="M100.6,22.6c0.8,0.6,2.6,1.5,4.1,2.1c1.1,0.4,2.3,0.5,3.5,0.1c1.7-0.6,4.2-1.5,4.9-1.9
		c1.5-0.9,1.4-2.8,1.5-5.4c0.1-3.1,0.4-5.5,0.1-7.3c-0.4-2.1-1.8-3.3-5.5-3.7c-6.9-0.6-9.8,1.1-10,3.5c0,0.6-0.1,1.2-0.1,1.8
		C98.7,19,99.3,21.5,100.6,22.6z"/>
	<path class="st1" d="M99,10.8c0,0,1.1-1.7,3.3-1c2.1,0.7,2.4,2.5,6,2.2c3.7-0.3,4.5-2,5.2-1.2c0.7,0.9,1,6,1,6S121.9,0,107,0
		c0,0-15.4-0.9-8,16.1V10.8z"/>
	<path class="st8" d="M71.9,26.6L71.9,26.6C71.9,26.7,71.9,26.6,71.9,26.6z"/>
	<path class="st7" d="M106.2,78.2c0,0-1.9,1.5-4.8,1.5c0,0-2.9-3.2-5.4-6.3c-1.6-2-3-4-3.3-5c-0.7-2.6-14.4-3.3-16.1-5.2
		c-1.7-1.8,6.8-6.4,6.8-6.4s13.9,2.1,16,4.9c0.8,1.1,2.1,3.9,3.3,6.9C104.5,73.2,106.2,78.2,106.2,78.2z"/>
	<path class="st9" d="M86.8,40.1c0,0,2.6-5.1,3.9-5c1.3,0.1-3,10.6-3.4,15.6C86.9,55.9,86.8,40.1,86.8,40.1z"/>
	<path class="st4" d="M95,75.3c-1.8,4.4-4.2,8.5-4.5,9c0,0,0,0.1,0,0.1s0,0,0,0c-0.4,0-4.3-0.1-4.6-1.6c0,0-0.1-5.3,0.1-9.5
		c0.1-1.9,0.3-3.5,0.5-4.4c0,0-20.7-0.1-20.3-6c0.4-5.9,11.2-8.9,17.4-5.9c0,0,8.2,3,12.6,7C98.2,65.8,96.9,70.7,95,75.3z"/>
	<path class="st10" d="M66.7,54.6c0,0-2.8,4-2.1,7.8c0.6,3.8,8.5,5.8,14,6c0,0,15.7-3.6,13.3-9.9C91.4,57.1,66.7,54.6,66.7,54.6z"/>
	<g>
		<path class="st1" d="M72.4,4.8c0,0-2.5-5.1-8.5-2s-0.2,14.9-3.3,17.8c-3.2,2.9,1.1,4.9,0.5,7c-0.6,2.1,1.2,4.5,5.4,4.2
			c4.2-0.3,8.7-0.1,10.6-3.7c1.9-3.7,1.5-11.8,0.7-13C77.1,14,72.4,4.8,72.4,4.8z"/>
		<path class="st4" d="M82.2,32.8L72,26.7c0.1,0,0.3-0.3,1-2.6c0.3-0.9,0.5-1.8,0.6-2.4c0-0.1,0-0.1,0-0.2c0.1-0.9,0-1.5,0-1.5
			l2.2,0.8l4.2,1.5c0,1.1,0.1,1.8,0.3,2.3c0.5,1.2,1.6,1.2,1.6,1.2L82.2,32.8z"/>
		<path class="st7" d="M80.4,24.6c-4,0.3-6.3-2.3-6.8-2.9c-0.1-0.1-0.1-0.2-0.1-0.2s0,0,0.1,0c0.3-0.1,1.2-0.4,2.3-0.7l4.2,1.5
			C80,23.4,80.1,24.1,80.4,24.6z"/>
		<path class="st4" d="M80.6,23.2c0,0-8.9,1-9.1-5.1c-0.2-6-1.5-8.8,4.7-9.3c6.2-0.5,7.6,1.7,8,3.7C85.3,18.9,83.1,22.9,80.6,23.2z"
			/>
		<path class="st1" d="M76.6,11.7c-3.2-0.8-2,4.8-2.7,4.4c-0.9-0.4-2.4-0.4-2.2,0.7c0.2,1.1,0.6,1.5,0.8,2.1c0.2,0.7,0,2-0.7,1.7
			C71,20.4,64.1,12.6,69,6.5c4.8-6.1,19.2-2.3,14.7,4C82.8,11.7,78.8,12.3,76.6,11.7z"/>
		<path class="st11" d="M88.1,56.9c0,0-2.7,1.4-6.9,1.4c-2.7,0-8.4-1.2-12.1-2.5c-2.1-0.8-3.5-1.6-3.4-2.2c0.2-1,2-8.5,3.7-15.4
			c1.5-6.3,2.9-12.2,2.9-12.2s4.2,3,6.6,1.9c2.4-1,2.1-2.2,2.1-2.2s2.9-0.4,3.6-0.3c1.2,0.1,5.6,1.7,5.6,1.7s0.6,1.6-1,4.2
			c-1.3,2.1-2.5,2.5-2.5,2.5S90.5,45,88.1,56.9z"/>
		<path class="st8" d="M74.6,46.8c0,0,2.6-0.5,3.6,0.2c1,0.7,1.3,1.7,0.6,2.1c-2.3,1.3-4.6-0.1-4.6-0.1L74.6,46.8z"/>
		<path class="st12" d="M69.1,55.7c-2.1-0.8-3.5-1.6-3.4-2.2c0.2-1,2-8.5,3.7-15.4c0.5-0.9,0.8-1.4,0.8-1.4S73.4,51,69.1,55.7z"/>
		<path class="st8" d="M72.4,26.7c0,0-7.9,1.7-11.1,14c-0.3,1.2,0,2.5,0.8,3.4c1.4,1.6,4.6,3.9,12,4.8c0.8,0.1,0.9-2,0.9-2
			c-0.1,0.2-5-3.2-7.1-5c-0.4-0.3-0.4-1-0.1-1.4c0.7-1.1,1.9-3,2.3-3.9C70.8,35.2,74.7,27.3,72.4,26.7z"/>
		<path class="st11" d="M72.3,25.9c0,0-4.7,0.3-8.5,5.4c0,0,1.3,4.7,7.3,5.9C71.2,37.2,74.9,28.8,72.3,25.9z"/>
	</g>
	<path class="st13" d="M95,75.3c-1.8,4.4-4.2,8.5-4.5,9c0,0,0,0-0.1,0.1c-0.4,0-4.3-0.1-4.6-1.6c0,0-0.1-5.3,0.1-9.5
		C86.5,73.8,88.9,75.5,95,75.3z"/>
	<path class="st13" d="M106.2,78.2c0,0-1.9,1.5-4.8,1.5c0,0-2.9-3.2-5.4-6.3c2.8-1.2,5.7-3.8,6.7-4.8
		C104.5,73.2,106.2,78.2,106.2,78.2z"/>
	<path class="st1" d="M96.4,90c-0.1,0.5-0.6,0.8-1,0.7c-1.1-0.2-3.2-0.7-4.1-1c-1.2-0.4-3.5-1.8-4.8-2.3c-0.4-0.2-1.4-0.6-2.1-0.8
		c-0.3-0.1-0.5-0.5-0.4-0.9c0.2-0.7,0.6-2,1.2-3.1c0.1-0.2,0.3-0.3,0.5-0.4c0.6,0.5,1.6,1.1,3,1.1c1.1,0,2-0.3,2.7-0.6
		c0.1,0.2,1.7,3.5,2.9,3.9C95.3,87.1,96.7,88.1,96.4,90z"/>
	<path class="st1" d="M113.7,78.2c0.2,0.4,0.1,1-0.4,1.2c-1,0.5-2.9,1.5-3.8,1.7c-1.2,0.4-3.9,0.8-5.1,1.2c-0.4,0.1-1.5,0.4-2.1,0.6
		c-0.4,0.1-0.7-0.1-0.9-0.4c-0.3-0.7-0.7-2-0.9-3.2c0-0.2,0-0.4,0.1-0.7c0.8,0,1.9-0.2,3-1c0.9-0.7,1.4-1.4,1.7-2.1
		c0.2,0.1,3.5,1.7,4.7,1.3C111.1,76.6,112.8,76.5,113.7,78.2z"/>
	<path class="st5" d="M97,71.5c0,0-0.6,3.4-2.8,5c0,0-9.1-1.3-17.6-3.4c-6.2-1.6-12.1-3.6-13.8-6c-4-5.7,2.1-12.5,2.1-12.5
		s11.7,5.6,24.4,12.6C91.8,68.6,94.4,70.1,97,71.5z"/>
	<path class="st8" d="M83.3,76.6c0,0-2.7,0.2-3.7,1.2c-1,1-2.6,4-1.5,5.2c1.1,1.2,6.4-1.4,6.5-1.8C84.8,80.7,83.3,76.6,83.3,76.6z"
		/>
	<path class="st6" d="M97,71.5c0,0-0.6,3.4-2.8,5c0,0-9.1-1.3-17.6-3.4c4-3.5,9.2-5.2,12.6-6C91.8,68.6,94.4,70.1,97,71.5z"/>
	<path class="st5" d="M127.9,34.3c-1.8-4.3-13.8-4.5-13.8-4.5c-6.1,16-7.6,26.5-9.2,33.2c-0.3,0-0.5,0-0.7,0c0,0-8.6,3.3-21.3,12.6
		c0,0-1.3,3.6,1.1,6.6c0,0,21.9-4.8,28-8.4c0,0,0,0,0,0c0.1,0,0.1-0.1,0.2-0.1c0.1-0.1,0.2-0.1,0.3-0.2
		C132.4,60.6,130.5,40.5,127.9,34.3z"/>
	<path class="st14" d="M108.3,21.6c0.3-0.2,0.5-0.4,0.5-0.7c0,0-0.8-0.3-2-0.2c-1.2-0.1-2,0.2-2,0.2c0,0.3,0.2,0.6,0.5,0.7
		c0,0,0,0,0,0c0,0,0,0,0,0c0.3,0.2,0.7,0.3,1.5,0.3C107.5,22,108,21.8,108.3,21.6C108.2,21.7,108.3,21.7,108.3,21.6
		C108.3,21.7,108.3,21.7,108.3,21.6z"/>
</g>
<g>
	<path class="st4" d="M73.8,84.9l-0.3,3c0,0-0.2,0-0.5,0c-1.1,0-3.7,0-6.6-0.1c-2.8-0.1-6-0.3-8.5-0.8c-1.4-0.3-2.6-0.6-3.4-1
		c-3.3-1.8-8.9-7.4-12.6-13.2c-0.1-0.1-0.2-0.3-0.3-0.4c-1.3-2-2.3-3.9-2.9-5.8c-0.4-1-0.6-2-0.7-2.8c-0.2-1.5-0.1-2.8,0.2-4
		c0.3-1.5,0.9-2.8,1.6-3.7c0.1-0.2,0.2-0.3,0.3-0.4c1.1-1.5,2.2-2.1,2.2-2.1c0.5-0.2,1-0.1,1.5,0.3c0.1,0,0.1,0.1,0.2,0.1
		c0,0,0,0,0,0c0.1,0.1,0.2,0.1,0.2,0.2l0,0c0.2,0.2,0.4,0.4,0.6,0.7c0,0,0,0,0,0c0.4,0.5,0.8,1,1.2,1.7c0,0,0.1,0,0.1,0.1
		c0.1,0.2,0.3,0.4,0.4,0.7c0.1,0,0.1,0.1,0.1,0.2c0.3,0.5,0.6,1.1,0.9,1.7c3.4,6.3,7.1,16,9.9,18.8c0.7,0.6,2.5,1.6,4.8,2.6l0,0
		c0,0,0.1,0,0.1,0.1c0,0,0,0,0,0c1.9,0.8,4,1.6,5.9,2.4C71.4,84.1,73.8,84.9,73.8,84.9z"/>
	<path class="st15" d="M62.4,80.6c-0.1,0.3-0.7,1.9-1.6,3.5c-0.8,1.3-1,2.4-2.2,3.1c-1.4,0-3.6-0.8-4.5-1.2
		c-2.8-1.2-4.5-2.5-5.9-4.2c-1.6-1.9-2.8-4.2-4.7-6.9c-0.5-0.8-1.1-1.5-1.6-2.3c-0.1-0.1-0.2-0.3-0.3-0.4c-1.3-2-2.3-3.9-2.9-5.8
		c0,0,1.1-15.2,6.6-13.6c5.2,1.5,9.3,22.2,12.2,25c0.7,0.6,2.5,1.6,4.8,2.6l0,0C62.3,80.6,62.3,80.6,62.4,80.6z"/>
	<path class="st16" d="M51.8,195.6l-3.2,1.2c0,0-14-19.4-15.7-36.4c-0.3-3-0.2-6,0.5-8.7c0,0-0.1-0.8-0.4-2.2
		c-0.1-0.6-0.2-1.4-0.4-2.3c-0.5-2.6-1.1-6.2-1.8-10.2c-1.6-9.3-3.8-21.2-5.4-30l0.9-0.3l9.4-3l1.9-6.2l7-1.8c0,0,1.6,3,3,17.5
		c0.3,1.9,0.5,4,0.7,6.2c0.5,6.9,0.6,15.5-0.7,25.2c-0.3,2.5-0.7,5.1-1.2,7.7c-0.4,1.9-0.4,4.6-0.3,7.6
		C46.7,173.9,51.8,195.6,51.8,195.6z"/>
	<path class="st17" d="M48.1,119.9L33,149.5c-0.1-0.6-0.2-1.4-0.4-2.3c-0.5-2.6-1.1-6.1-1.8-10c-1.6-9.2-3.8-20.9-5.4-29.5l0.9-0.3
		l9.4-3l1.9-6l7-1.8c0,0,1.6,3,3,17.2C47.7,115.6,48,117.7,48.1,119.9z"/>
	<path class="st16" d="M41.5,99.6l-0.4-3c-5.9,1.6-21.6-4.4-21.6-4.4s-5.7,5-4.9,17c0.4,5.9,1,30.7,1.7,38.1
		c0.3,2.7,0.5,4.6,0.6,5.3c0,0,0,0,0,0c0,0.2-0.1,0.5-0.2,0.7c-1,1.7-1.9,3.5-2.6,5.4c-6.8,18.2,1.1,40.6,1.1,40.6l2-0.8
		c0,0,4.5-24.9,8.1-36c0.6-1.9,1.2-3.3,1.8-4.2c1.6-2.6,3.1-6.7,4.4-11.7c2.5-9.4,4.6-21.6,5.9-31.1C37.6,115.5,41.5,99.6,41.5,99.6
		z"/>
	<path class="st4" d="M37.3,62.5c-9.8,2.4-10.4-12.9-9.7-12.9c1.1-0.9,2.7-4.3,3-9.7l0.5,0.1l7.8,2.1c0,0-0.3,2.5-0.5,4.8
		c-0.1,1.8-0.1,3.6,0.2,4c0.6,0.1,1,0.2,1,0.2s0,0,0,0C39.7,51.3,40,61.9,37.3,62.5z"/>
	<path class="st1" d="M30.3,20.5c-0.1-0.4-1.3-5-8.4-4c0,0,3.6-0.2,4.4,1.2c0,0-2.7-1.5-4.5-0.5c-1.8,1-2.3,4.5-2.1,5.7
		c0.2,1.1,1.9,4.5,3.2,4.6c0.5,0,1-0.1,1.5-0.3c-0.2,0.6-0.5,1.2-0.6,1.9c-1.8,6.3,2.2,11.4,4.4,10.4c1.5-0.7,2.4,1.9,2.4,1.9
		l12.7-14.8C43.2,26.6,35.7,16.3,30.3,20.5z"/>
	<path class="st7" d="M38.9,42.1c0,0-0.3,2.5-0.5,4.8c-4.4-0.4-6.5-4.6-7.3-6.9L38.9,42.1z"/>
	<path class="st4" d="M40.2,44.4c0,0-10.5-0.5-10-7c0.4-6.5-0.7-10.9,6-10.9c6.7,0,7.8,2.6,8.2,4.8C44.8,33.5,43,44.4,40.2,44.4z"/>
	<path class="st1" d="M44.4,27.7c-1.5-2.1-2.7-1.7-3.5-1.2c-5.5-3.5-9.5,0.9-9.5,0.9c-1,4.6-4.5,7.1-4.5,7.1s1.8,1.3,6.3,0.5
		c1.4-0.3,2.6-1.1,3.7-2.2c-2,2.9-4.5,4.9-4.5,4.9c5.4-2.1,8-9.2,8.2-10c0.6,0.6,1.8,1.9,2.1,3.2c0.4,1.7,0.4,5.1,1.4,5.1
		C44.1,35.8,46.6,30.8,44.4,27.7z"/>
	<path class="st1" d="M27.1,201H10.9c0,0-0.4-2.5,0.5-4.3c0.8-1.8,2.1-2.6,1.8-4.8c1,1.1,2.7,2.2,5,1.9c0.3,0.5,1.9,3,2.8,3.6
		C22.1,198.2,26.8,197.9,27.1,201z"/>
	<path class="st1" d="M61.9,201H45.7c0,0-0.6-2.6,0.5-4.3c0.9-1.6,0.6-2.4-0.1-3.7c0.7,0.3,1.7,0.6,2.7,0.5c0.8,0,1.7-0.4,2.4-0.8
		c0.7,0.8,3.7,4.2,4.6,4.8C56.8,198.2,61.5,197.9,61.9,201z"/>
	<path class="st15" d="M45.3,53l3.8,35.5l2.3,21.8c-2.3,1.2-4.5,2.2-6.7,3.1c-0.5-1.8-1.4-3.8-1.4-3.8c0.2,1.1-0.7,3.5-1.3,4.8
		c-19.8,7-31-0.2-31-0.2c-0.6-8-0.1-24.6,1.6-38.7c0.4-2.9,0.8-5.8,1.2-8.4c1-6,1.8-9.1,2.5-11.6c1.3-4.7,10.7-6.1,10.7-6.1
		c3,6.2,8.7,9.3,8.7,9.3C38,56.8,39,51,39,51L45.3,53z"/>
	<path class="st16" d="M28.8,47.9c0,0-1.7,0.4-1.8,1.6c0,0,3.8,8.5,8.7,9.3L28.8,47.9z"/>
	<path class="st16" d="M35.6,58.8c0,0,3-7.8,2.7-8.9c0,0,1.9,0.4,2,1.5C40.3,51.4,37.8,57.9,35.6,58.8z"/>
	<path class="st17" d="M29,65.4c0.2,0.4,10.1,18.1,20.1,23.1c4.4,2.2-10.5-0.7-10.8-1.3C38.1,86.6,29,65.4,29,65.4z"/>
	<path class="st17" d="M49.1,88.6l1.6,14.8c-25.3,0-28-34.7-28-34.7L36.7,84l12.2,4.4C48.9,88.4,49,88.5,49.1,88.6z"/>
	<path class="st4" d="M58.7,92.3l-0.4,3.2c0,0-1.1-0.1-2.8-0.1c-0.5,0-0.8-0.1-0.8-0.1c-1.4-0.1-3-0.2-4.9-0.4l0,0
		c-3.1-0.3-6.6-0.7-9.6-1.3c-0.3-0.1-0.5-0.1-0.8-0.2C37.7,93,36.1,92.6,35,92c-0.1-0.1-0.2-0.1-0.4-0.2c-3.1-1.7-7.3-7.2-10.7-13.4
		c-0.5-0.8-0.9-1.7-1.4-2.5c-1.6-3.1-3-6.1-4-8.8c-0.6-1.6-1-3.1-1.2-4.3c-0.1-0.4-0.2-0.8-0.2-1.2c-0.9-7,4-8.4,4.7-7.7
		c1,0.9,2,2.4,3.2,4.2c1.8,2.9,3.8,6.8,5.7,10.6c1,2.1,2.1,4.2,3.1,6.1c0.6,1.2,1.1,2.3,1.7,3.3c1,1.9,1.9,3.5,2.7,4.4
		c0.5,0.6,1.7,1.4,3.3,2.3c0.4,0.2,0.9,0.5,1.4,0.7c2.7,1.3,6,2.8,9,3.9c1.5,0.6,2.8,1.1,4,1.6C57.5,91.8,58.7,92.3,58.7,92.3z"/>
	<path class="st15" d="M42.8,85.6c0,0,1,5.8-4.1,9.4C32,93.5,27.4,84.6,23.9,78.5c-0.5-0.8-0.9-1.7-1.4-2.5c-1.6-3.1-3-6.1-4-8.8
		c-0.6-1.6-1-3.1-1.2-4.3c-0.1-0.4-0.2-0.8-0.2-1.2c-0.9-7,4-8.4,4.7-7.7c1,0.9,2,2.4,3.2,4.2c1.8,2.9,3.8,6.8,5.7,10.6
		c1,2.1,2.1,4.2,3.1,6.1c0.6,1.2,1.1,2.3,1.7,3.3c1,1.9,1.9,3.5,2.7,4.4c0.5,0.6,1.7,1.4,3.3,2.3C41.8,85.1,42.3,85.4,42.8,85.6z"/>
	<path class="st18" d="M67,77.4C67,77.4,67,77.4,67,77.4C67,77.4,67,77.4,67,77.4C67,77.3,67,77.3,67,77.4z"/>
	<polygon class="st19" points="82,101.4 61.5,101.5 75.1,79.1 95.6,79 	"/>
	<path class="st4" d="M70.5,94.3c-1.3-0.1-3.5-0.6-4.7-1.1c0,0,0.7-0.3,1.1-0.5l0.8-1.2c-0.6,0.1-1.1,0.4-3.3,0.4
		c-0.9,0-2.8,1-2.7,1.1c-1.6-0.3-3-0.7-3.4-0.8c-0.1,0-0.2-0.1-0.2-0.1L56,95.3c0,0,1.4,0.2,1.9,0.3c1.3,0.4,3.3,1.6,5.8,2.4
		c1.5,0.5,4.1-0.3,5.7-0.9c1.3-0.5,2.1-1.4,2.4-2C72.4,94.2,71.3,94.4,70.5,94.3z"/>
	<path class="st17" d="M58.5,87.2c-1.4,0-3.6-0.8-4.5-1.2c-2.8-1.2-4.5-2.5-5.9-4.2l-0.9-10.4C47.4,72.2,49.4,84.9,58.5,87.2z"/>
</g>
<g>
	<g>
		<g>
			<path class="st1" d="M260.6,196.1c-0.5-2.1-1.1-2.6-1.1-2.6s-6.8-1.4-7.9,0.8c-0.2,0.5-0.5,1-0.6,1.6c-0.5,1.6-0.8,3.4-0.9,4
				h11.1C261,198.2,260.8,197,260.6,196.1z"/>
		</g>
		<g>
			<path class="st20" d="M234.3,129c-12,1.6-17.5-2.8-17.5-2.8S228,42.2,230,37.1s10.8-6.7,10.8-6.7S246.3,127.4,234.3,129z"/>
		</g>
		<g>
			<path class="st1" d="M227.5,192c0,0-7.5-6-8.5-1.4c-0.3,1.2-0.9,2.2-1.7,3.1c-2.3,2.5-6.3,3.7-8.8,4.1c-2.3,0.3-3,1.5-3.3,2.3
				h21.8c0.5-0.6,0.7-2,0.8-3.5C227.8,194.4,227.5,192,227.5,192z"/>
		</g>
		<g>
			<path class="st10" d="M216.8,191c5.3-24.4,7.2-59.5,8-80.3c0.4-10.5,2.1-17.7,2.1-17.7s26.1-7,26.3,1.9c0.1,5.7-4.6,23.5-8,37.7
				c-1.3,5.3-2.4,10.1-3,13.6c-0.3,1.7-0.5,3-0.5,4.1c-0.7,13.5-11.4,44.5-13.3,45.2c-3,1.1-7.6-1.3-10.1-2
				C217.3,193.1,216.6,192,216.8,191z"/>
		</g>
		<g>
			<path class="st11" d="M264,92.4c3.6,2.4,0.4,23.9,0.7,36.8c0.4,12.8-3.7,66.1-3.7,66.1c-4.7,1.2-10.8-0.3-10.8-0.3L236.4,94.9
				C236.4,94.9,260.3,89.9,264,92.4z"/>
		</g>
		<g>
			<path class="st15" d="M265.8,102.3c-20.1,9.5-41,2.4-41,2.4s7.3-65.9,11.1-70c1.4-1.5,3.3-3.6,4.9-4.4
				c10.4-4.8,24.9,4.6,24.9,4.6S265.8,102.3,265.8,102.3z"/>
		</g>
		<g>
			<path class="st20" d="M237.1,45.6c-2.6,8.7-7.7,22.4-9.2,26.9c-1.8,5.4-13.1,8-13.1,4.6s6.5-31.7,8.5-36.4S240,30.1,240,30.1
				L237.1,45.6z"/>
		</g>
		<g>
			<g>
				<path class="st4" d="M240.9,30.4c0,0,0.3-1.1,0.4-3.4c0-0.7,0.1-1.5,0.1-2.5c0-0.4,0-0.7,0-1.1c0-0.7,2.3-1.8,2.3-1.8h8.3
					c0,0.3,0,1,0,2c0,0.1,0,0.2,0,0.3c0.2,1.9,0.9,4.8,2.4,8.6c-3.5,2.3-8.2,3-11.4,2.3C239.8,34,240.9,30.4,240.9,30.4z"/>
			</g>
			<g>
				<path class="st7" d="M241.3,24.4c3-1.1,8.3-1.9,10.6-0.9c0.1,0,0.2,0,0.2,0.1c0,0,0,0-0.2,0.2c-0.8,0.9-4.5,4.3-10.7,3.1
					C241.3,26.2,241.3,25.4,241.3,24.4z"/>
			</g>
			<g>
				<path class="st4" d="M250.2,5.6c-7.9-1.9-10,0.8-11.1,3.2c-0.7,1.6-1.4,8.1-0.9,12.4c0.3,2.2,0.9,3.9,2,4.2c0,0,0.6,0.1,1.5,0.2
					c3.4,0.4,11.2,0.6,12.3-5.5C255.5,12.4,258.1,7.6,250.2,5.6z"/>
			</g>
			<g>
				<path class="st1" d="M238.9,9.9c2.9,1.2,6.7-0.1,8.6,1.5c1.9,1.5,0.6,4.1,2.6,5.3c0.5,0.3,1.1,0.1,1.4-0.3
					c0.3-0.7,1.5-1.5,2.3-0.8c0.7,0.6,0.3,2.7-0.5,3.5c-0.4,0.3-0.6,0.9-0.5,1.4c0,0.1,0,0.2,0,0.4c0,2.5-0.7,3-0.7,3s3.4,0.9,7-7.1
					c3.4-7.6,1.7-12.6-4.7-15.4c0,0-5.7-2.5-10.2-0.1c-2,1.1-4.3,2.9-5.4,4.4C238,6.6,235.1,8.4,238.9,9.9z"/>
			</g>
		</g>
		<g>
			<path class="st20" d="M237.9,105.2c0.3-3.4,0.5-14.2,0.7-15.3c0.2-2,3.1-3.4,3.4-5.4c0.2-2.3,0.5-4.7,0.7-6.9
				c0-0.2,0-0.5,0.1-0.7c0.1-0.7,0.1-1.4,0.2-2c0-0.6,0.1-1.2,0.2-1.8c0.6-5.7,1.3-10.7,1.8-14.4c0.4-2.7,0.7-4.7,1-5.7
				c0.1-0.6,0.6-2.7,1.3-5.5l0,0l0,0c1.1-4.2,2.6-9.9,4.1-13.6c0.8-2,1.5-3.4,2.2-3.7l0,0c0,0,1.4,0.7,3,1.5c1.9,1,4.1,2,4.3,2.2
				c2.7,2,3.9,4.2,4.9,8.4c0.4,1.4,0.7,3,1,5c0.1,0.8,0.9,16.7,1.5,34.3c0,0.9,0,1.7,0.1,2.6c0.1,2,0.1,4.1,0.2,6.1
				c0.7,19.9,1.4,39.2,1.2,39.2c-1.8,0.6-3.5,1.1-5.1,1.6c-7.3,2.1-13.6,3-19.8,2.4c-1.1-0.1-2.2-0.2-3.3-0.4
				c-1.3-0.2-2.5-0.5-3.8-0.8C237.9,131.2,237.7,107.7,237.9,105.2z"/>
		</g>
		<g>
			<path class="st21" d="M267.6,75.3c-0.4,0.7-25.5,1.7-25.5,1.7s-8.9-0.6,4.5-2.7c13.3-2.1,12.8-19.9,12.8-19.9
				C259.4,54.3,268,74.6,267.6,75.3z"/>
		</g>
		<g>
			<path class="st21" d="M248.8,81.7l10.7-3.4c0,0,2.7,1,6.3,2.3c0.8,0.3,1.6,0.6,2.5,1c1.1,0.4,2.2,0.9,3.3,1.3
				c0,0.3,0,0.5,0.1,0.8c-1,0.2-2.1,0.4-3.3,0.5c0.1,2,0.1,4.1,0.2,6.1c-1-0.2-2-0.5-2.9-0.7c-8.8-2.4-14.8-5.9-16.9-7.2
				c0,0,0,0,0,0c-0.5-0.3-0.7-0.5-0.7-0.5L248.8,81.7z"/>
		</g>
		<g>
			<path class="st20" d="M245.8,79.3l0.6-2.6l0.6-2.6l0.3-1.1c0,0,0,0,0,0c0.4,0,1.8-0.2,3.7-0.4c4.6-0.6,11.9-1.9,12.6-4.6
				c0.1-0.6-0.2-2.6-0.9-5.4c-1.8-7.7-5.9-21.3-8-28.3c-0.2-0.7-0.4-1.4-0.6-2c-0.5-1.5-0.7-2.3-0.7-2.3l0,0c0,0,0.8,0,2,0.2
				c0.1,0,0.3,0,0.4,0c3.5,0.5,9.7,1.8,13.1,5.5c3,3.2,16.9,36.2,7.9,45.4c-1.2,1.2-3,2-5.3,2.5c-1,0.2-2.1,0.4-3.3,0.5
				c-0.9,0-1.7,0.1-2.6,0.1c-6.1,0.1-12.8-1-16.9-1.9c0,0,0,0,0,0c-2.2-0.4-3.6-0.8-3.6-0.8L245.8,79.3z"/>
		</g>
		<g>
			<polygon class="st19" points="213.8,58.8 244.8,57.5 251.1,96.1 220.1,97.4 			"/>
		</g>
		<g>
			<path class="st4" d="M248.1,79.9c-1.9,0.2-7.8-2.5-7.1-5.8c0.3-1.4,6.3-1,6.3-1C248.7,72.9,250,79.7,248.1,79.9z"/>
		</g>
		<g>
			<path class="st4" d="M216.3,73.4c1.9-0.3,7-4.3,5.6-7.3c-0.6-1.3-6.4,0.5-6.4,0.5C214.1,66.8,214.5,73.6,216.3,73.4z"/>
		</g>
		<g>
			<path class="st22" d="M247.3,47.5c0,0.2,9.4-16.3,9.4-16.3c-1.3-1.8-3.8-3-3.8-3C250.5,30.3,247.3,47.4,247.3,47.5z"/>
		</g>
		<g>
			<path class="st22" d="M240.9,30.4c-1.2,4.7-3.6,15.3-3.6,15.3l1.1-14.4c0.3-0.9,2-2.5,2.8-2.9C241.1,28.8,241.1,29.1,240.9,30.4z
				"/>
		</g>
		<g>
			<path class="st1" d="M222.2,58.4c-0.2-1,1.4-1,1.4-1s7.9-0.4,9.3-0.5c1.4-0.1,1.6,1,1.6,1L222.2,58.4z"/>
		</g>
		<g>
			<path class="st14" d="M239.4,20.7c0,0,0.5,1.3,1.5,1.5c1.6,0.3,2.7-0.6,2.7-0.6C241.3,20.4,239.4,20.7,239.4,20.7z"/>
		</g>
	</g>
	<g>
		<rect x="253.9" y="41.7" class="st14" width="8" height="3.6"/>
	</g>
</g>
<g>
	<rect x="140.5" y="133.9" class="st23" width="3" height="49.5"/>
	<rect x="93.8" y="163.2" class="st23" width="3" height="34.1"/>
	<g>
		<g>
			<path class="st24" d="M147.9,204.6c0.2-1-11-40.3-12.2-44.8l-0.4,0.1c3.4,12,12.3,43.5,12.2,44.6L147.9,204.6z"/>
		</g>
		<g>
			<path class="st24" d="M164,176.1c-1-0.2-40.3,11-44.8,12.2l0.1,0.4c12-3.4,43.5-12.3,44.6-12.2L164,176.1z"/>
		</g>
		<g>
			<path class="st24" d="M159.9,167.9c-1,0.2-33,25.6-36.6,28.5l0.2,0.3c9.8-7.8,35.4-28.1,36.4-28.5L159.9,167.9z"/>
		</g>
		<g>
			<path class="st24" d="M118.4,179.3c0.9-0.4,41.4,5.3,46,5.9l-0.1,0.4c-12.4-1.7-44.8-6.2-45.9-5.9L118.4,179.3z"/>
		</g>
		<g>
			<path class="st24" d="M150.4,161c-0.8,0.7-15.8,38.6-17.5,43l0.4,0.1c4.6-11.6,16.7-42,17.4-42.8L150.4,161z"/>
		</g>
		<g>
			<path class="st24" d="M123.3,168.4c1,0.2,33.3,25.2,37,28.1l-0.2,0.3c-9.9-7.7-35.8-27.6-36.8-28L123.3,168.4z"/>
		</g>
	</g>
	<path class="st25" d="M145.2,182.8c0-1.7-1.4-3.2-3.2-3.2c-1.7,0-3.2,1.4-3.2,3.2c0,1.7,1.4,3.2,3.2,3.2
		C143.8,186,145.2,184.6,145.2,182.8z"/>
	<g>
		<path class="st23" d="M142,207.2c-13.7,0-24.8-11.1-24.8-24.8c0-13.7,11.1-24.8,24.8-24.8c13.7,0,24.8,11.1,24.8,24.8
			C166.8,196,155.7,207.2,142,207.2z M142,160.2c-12.2,0-22.2,9.9-22.2,22.2c0,12.2,9.9,22.2,22.2,22.2c12.2,0,22.2-9.9,22.2-22.2
			C164.2,170.1,154.3,160.2,142,160.2z"/>
	</g>
	<path class="st23" d="M90,201.9c0-2.9,2.4-5.3,5.3-5.3c2.9,0,5.3,2.4,5.3,5.3s-2.4,5.3-5.3,5.3C92.3,207.2,90,204.8,90,201.9z"/>
	<path class="st26" d="M97.1,201.9c0-1-0.8-1.8-1.8-1.8c-1,0-1.8,0.8-1.8,1.8c0,1,0.8,1.8,1.8,1.8C96.2,203.7,97.1,202.9,97.1,201.9
		z"/>
	<g>
		<path class="st27" d="M149.9,96.9c0.4,0,0.7-0.2,0.9-0.5l3.2-6.8h10.6c0.5,0,0.9-0.4,0.9-0.9c0-0.5-0.4-0.9-0.9-0.9h-11.2
			c-0.4,0-0.7,0.2-0.9,0.5l-3.4,7.4c-0.2,0.5,0,1,0.5,1.3C149.6,96.8,149.7,96.9,149.9,96.9z"/>
	</g>
	<path class="st28" d="M156.6,90h8.1c0.8,0,1.4-0.6,1.4-1.4l0,0c0-0.8-0.6-1.4-1.4-1.4h-8.1c-0.8,0-1.4,0.6-1.4,1.4l0,0
		C155.2,89.3,155.8,90,156.6,90z"/>
	<path class="st4" d="M164.9,85.6c-0.3,0.2-5-0.4-6.5,0.6c-1.5,1-3,3.6-2.3,4.6c0.7,0.9,3.9-1.9,4.9-1.9c0.9,0,3.7-0.8,3.7-0.8
		L164.9,85.6z"/>
	<path class="st29" d="M163.5,85.2c0,0-0.5,0.9-0.5,1.6c0,1.3,0.5,1.9,0.5,1.9s5.7,0.5,11.8-0.4c3.4-0.5,7-1.4,9.7-3
		c3.8-2.2,7.3-10.1,9.9-17.6c2.8-8,4.5-15.6,4.5-15.6c-1.3-3.1-4.7-5-7.5-4.5c-1.6,0.3-5.2,1.5-6.1,2.6c-1.3,1.7-4.9,17-7.7,24.2
		C177.5,75.8,163.5,85.2,163.5,85.2z"/>
	<path class="st30" d="M175.3,88.2c3.4-0.5,7-1.4,9.7-3c3.8-2.2,7.3-10.1,9.9-17.6c0-5.4,0-9.9,0-9.9l-6.2,2.6
		c-0.2,0.4-2.2,19.1-6.6,22.9C178.4,86.2,175.9,87.8,175.3,88.2z"/>
	<g>
		<path class="st27" d="M172.5,96.9c0.4,0,0.7-0.2,0.9-0.5l3.2-6.8h10.6c0.5,0,0.9-0.4,0.9-0.9c0-0.5-0.4-0.9-0.9-0.9h-11.2
			c-0.4,0-0.7,0.2-0.9,0.5l-3.4,7.4c-0.2,0.5,0,1,0.5,1.3C172.2,96.8,172.3,96.9,172.5,96.9z"/>
	</g>
	<path class="st28" d="M179.2,90h8.1c0.8,0,1.4-0.6,1.4-1.4l0,0c0-0.8-0.6-1.4-1.4-1.4h-8.1c-0.8,0-1.4,0.6-1.4,1.4l0,0
		C177.8,89.3,178.5,90,179.2,90z"/>
	<path class="st31" d="M107.5,129.5c0,0-4.6,0.5-5.2,1.1c-0.6,0.6-2.7,4.1-2.7,4.7c-0.1,0.6,0,1.8,0.5,1.6c0.5-0.2,2.5-3.3,3.5-3.4
		c1,0,4.2-1.4,4.2-1.4L107.5,129.5z"/>
	<polygon class="st32" points="112.3,154.1 155.1,154.5 174.3,94.4 134.8,93.9 	"/>
	<path class="st7" d="M126.1,97c0,0-0.8,22.1-2.9,24.3c-1.3,1.4-15.7,8.2-15.7,8.2l0.1,2.7c0,0,18.7-2.6,21.5-6
		c5.4-6.6,5.8-24.5,6.1-26.4C135.4,97.9,130,94.1,126.1,97z"/>
	<path class="st1" d="M84,190.5h14.3c0,0,0.5-2.3-0.4-3.8c-0.8-1.4-0.5-2.2,0.1-3.3c-0.6,0.3-1.5,0.5-2.4,0.5
		c-0.7,0-1.5-0.4-2.1-0.7c-0.6,0.7-3.3,3.7-4.1,4.3C88.5,188.1,84.3,187.8,84,190.5z"/>
	<path class="st5" d="M150,138.2c-1,5.7-6,9.9-11.8,9.8c-7.2-0.1-17.7-0.2-21.6-0.4c-8.2-0.3-11.2,0-11.2,0.3c0.4,3.4,0.7,2-3.1,1.7
		c0,0-13.5-0.4-9.4-9.6c4-9.2,42.3-12.1,45.7-11.7C141.3,128.6,151.5,129.3,150,138.2z"/>
	<path class="st5" d="M92,143.6c0.2,6.5,1.2,24.6-1.4,39.1c-0.6,3.7,4.6,3.8,4.7,3.8c1,0.1,2.8,0.2,3.3-0.5
		c4.1-5.1,9.8-28.5,8.3-38.2c-0.8-4.7-5.5-4.7-9.3-6.4C95.3,140.2,92,141,92,143.6z"/>
	<rect x="159.6" y="133.9" class="st27" width="3" height="49.5"/>
	<path class="st1" d="M139.8,57.5c-4.2-1.1-8.7-0.1-12,2.7c-1.5,1.2-3.1,2.8-4.6,4.7c-3.7,4.6,2.6,9.8,1.6,11.4
		c-1,1.6-3.1,2.8-2.4,6.2c0.7,3.5,6.3,8.2,8.2,8.5c19.3,3.1,28.4-7.1,22.2-13.3c-6.2-6.2-3-14.4-8.1-18
		C143.3,58.7,141.5,57.9,139.8,57.5z"/>
	<path class="st4" d="M125.5,95.4c1.5,1.2,3.5,2.2,6,3c9.4,2.7,13.5-5.1,15.2-10.5c-1.3-0.8-2.5-1-3.2-1.2c-0.7-0.1-1.4-0.2-2-0.3
		c-1-0.9-2.4-4.3-2.5-9.5l-0.5,0.1l-7.6,1.6c0,0,0.2,2.4,0.2,4.7c0,1.8,0,3.4-0.4,3.8c-0.5,0.1-1,0.3-1,0.3c-0.1,0.2-0.1,0.1-0.1,0
		C129.6,87.6,127.4,90.9,125.5,95.4z"/>
	<path class="st7" d="M131,78.6c0,0,0.2,2.4,0.2,4.7c4.3-0.2,6.5-4.1,7.4-6.3L131,78.6z"/>
	<path class="st4" d="M129.6,80.8c0,0,10.1,0,10-6.3c-0.1-6.3,1.2-10.5-5.3-10.8c-6.4-0.3-7.7,2.1-8.2,4.2
		C125.7,70.1,126.9,80.6,129.6,80.8z"/>
	<path class="st1" d="M126.4,64.5c1.5-1.9,2.7-1.5,3.4-1c5.5-3.1,9.1,1.3,9.1,1.3c0.7,4.5,4,7,4,7s-1.9,1.3-6.1,0.1
		c-5.4-1.5-7-6.4-7.2-7.1c-0.6,0.6-1.4,0.9-2,2.2c-0.8,1.5-1.2,2.4-1.4,4.9C126.2,71.9,124.1,67.3,126.4,64.5z"/>
	<rect x="79.4" y="190.3" class="st27" width="35.9" height="2.9"/>
	<path class="st33" d="M154.4,138.2c-1,5.7-6,9.9-11.8,9.8c-7.2-0.1-17.7-0.2-21.6-0.4c-8.2-0.3-11.2,0-11.2,0.3
		c0.4,3.4,0.7,2-3.1,1.7c0,0-13.5-0.4-9.4-9.6c4-9.2,42.3-12.1,45.7-11.7C145.7,128.6,155.9,129.3,154.4,138.2z"/>
	<path class="st29" d="M154.4,119.1c-0.7-4.7,1-22.5-2.7-28c-2.7-4-6.4-5.6-11-5.7c-1.5,0.8-7.1,4-9.3,3.4c0,0-0.1,0-0.1,0
		c-1-0.3-1.4-1.1-0.5-1.7c0,0-3.8,0.8-4.9,2.1c-1.1,1.3-1.1,4-1.4,7.2c-0.1,0.8-0.1,1.6-0.2,2.4c-0.4,3.6,0.7,4,4.7,14.5
		c2,5.1,1,9.2-0.3,11.9c-1.2,2.4-0.4,5.4,1.9,6.8c7.9,5,23.2,13.7,23.8,6.1C155,130.5,155.4,125.5,154.4,119.1z"/>
	<path class="st4" d="M141.1,96.3c0,0-3.8,25.7-6.3,27.9c-1.6,1.4-17.9,4-17.9,4l-0.3,2.5c0,0,23.1,1.7,24.5-0.2
		c5.3-7.8,9.1-28,9.6-30C151.2,98.4,145.6,93.5,141.1,96.3z"/>
	<path class="st34" d="M88.4,190.3h14.3c0,0,0.5-2.3-0.4-3.8c-0.8-1.4-0.5-2.2,0.1-3.3c-0.6,0.3-1.5,0.5-2.4,0.5
		c-0.7,0-1.5-0.4-2.1-0.7c-0.6,0.7-3.3,3.7-4.1,4.3C92.9,187.9,88.7,187.6,88.4,190.3z"/>
	<path class="st33" d="M96.4,143.6c0.2,6.5,1.2,24.6-1.4,39.1c-0.6,3.7,4.6,3.8,4.7,3.8c1,0.1,2.8,0.2,3.3-0.5
		c4.1-5.1,9.8-28.5,8.3-38.2c-0.8-4.7-5.5-4.7-9.3-6.4C99.7,140.2,96.4,141,96.4,143.6z"/>
	<path class="st14" d="M127.9,77.1c0,0,1-0.3,3.6,0c0,0-0.2,1-2.2,1C128.2,78.1,127.9,77.1,127.9,77.1z"/>
	<path class="st29" d="M137.5,104c0,0,6.9,5.9,14.8,3.9c0,0,2.9-19.2-7.1-19.5C145.2,88.5,136.9,91.8,137.5,104z"/>
	<rect x="111.6" y="150.6" class="st27" width="48" height="3.8"/>
	<rect x="123.3" y="148.4" transform="matrix(0.866 0.5 -0.5 0.866 102.7289 -39.6335)" class="st27" width="4" height="46.9"/>
	<path class="st35" d="M159.6,150.6c-0.9,0-4.2-3.1-9.4-3c-5.2,0.2-34.4,0-34.4,0s-3.8-0.4-4.2,3H159.6z"/>
	<rect x="112.8" y="135.2" class="st27" width="3" height="62"/>
	<path class="st4" d="M116.9,128.2c0,0-5.1,0.3-5.7,0.9c-0.6,0.6-2.7,4.1-2.7,4.7c-0.1,0.6,0,1.8,0.5,1.6c0.5-0.2,2.4-3.6,3.4-3.6
		c1,0,4.2-1.1,4.2-1.1L116.9,128.2z"/>
	<path class="st27" d="M164.4,137h-56l0,0c0-3.4,2.8-6.2,6.2-6.2h46c2,0,3.7,1.7,3.7,3.7V137z"/>
	<g>
		<g>
			<path class="st35" d="M166.9,204.6c0.2-1-11-40.3-12.2-44.8l-0.4,0.1c3.4,12,12.3,43.5,12.2,44.6L166.9,204.6z"/>
		</g>
		<g>
			<path class="st35" d="M183.1,176.1c-1-0.2-40.3,11-44.8,12.2l0.1,0.4c12-3.4,43.5-12.3,44.6-12.2L183.1,176.1z"/>
		</g>
		<g>
			<path class="st35" d="M179,167.9c-1,0.2-33,25.6-36.6,28.5l0.2,0.3c9.8-7.8,35.4-28.1,36.4-28.5L179,167.9z"/>
		</g>
		<g>
			<path class="st35" d="M137.4,179.3c0.9-0.4,41.4,5.3,46,5.9l-0.1,0.4c-12.4-1.7-44.8-6.2-45.9-5.9L137.4,179.3z"/>
		</g>
		<g>
			<path class="st35" d="M169.5,161c-0.8,0.7-15.8,38.6-17.5,43l0.4,0.1c4.6-11.6,16.7-42,17.4-42.8L169.5,161z"/>
		</g>
		<g>
			<path class="st35" d="M142.4,168.4c1,0.2,33.3,25.2,37,28.1l-0.2,0.3c-9.9-7.7-35.8-27.6-36.8-28L142.4,168.4z"/>
		</g>
	</g>
	<path class="st36" d="M164.2,182.8c0-1.7-1.4-3.2-3.2-3.2s-3.2,1.4-3.2,3.2c0,1.7,1.4,3.2,3.2,3.2S164.2,184.6,164.2,182.8z"/>
	<g>
		<path class="st27" d="M161.1,207.2c-13.7,0-24.8-11.1-24.8-24.8c0-13.7,11.1-24.8,24.8-24.8c13.7,0,24.8,11.1,24.8,24.8
			C185.9,196,174.8,207.2,161.1,207.2z M161.1,160.2c-12.2,0-22.2,9.9-22.2,22.2c0,12.2,9.9,22.2,22.2,22.2s22.2-9.9,22.2-22.2
			C183.2,170.1,173.3,160.2,161.1,160.2z"/>
	</g>
	<path class="st27" d="M109,201.9c0-2.9,2.4-5.3,5.3-5.3c2.9,0,5.3,2.4,5.3,5.3s-2.4,5.3-5.3,5.3C111.4,207.2,109,204.8,109,201.9z"
		/>
	<path class="st36" d="M116.1,201.9c0-1-0.8-1.8-1.8-1.8c-1,0-1.8,0.8-1.8,1.8c0,1,0.8,1.8,1.8,1.8
		C115.3,203.7,116.1,202.9,116.1,201.9z"/>
	<path class="st1" d="M208.1,14.1c-3.7-1.9-6.6-0.7-6.6-0.7c-11.2-1.3-14.5,11.8-14.4,16.3c0.2,4.5,0.7,9.4-4.4,15.2
		c-14.5,16.9,15.9,17.7,15.9,17.7c0.3-13.5,16.5-8.6,15.8-7.2C235.1,60.4,216.4,18.5,208.1,14.1z"/>
	<path class="st1" d="M234.9,191.8c0,0,3.4,3.1,2.7,5.3c-0.7,2.2-3.7,3.7-4.1,6.4s-2.1,4.2-3.6,4.2c-1.5,0-7.1,0-7.1,0
		s-1.1-1.9,1.6-2.5c2.7-0.6,3.7-3.7,3.5-6.7c-0.2-2.9,0.2-6.9,0.2-6.9l5.6-1.3L234.9,191.8z"/>
	<path class="st1" d="M206.1,193.1c0,0,1.2,13.3-0.3,14h-19.3c0,0,0.2-2.4,3.2-2.9c3.1-0.5,8.5-2.3,9.4-6.3
		C200.1,194,206.1,193.1,206.1,193.1z"/>
	<path class="st4" d="M219.7,98.8c-3.9-8.8-6.3-11.4-5.9-14.1c0.3-2-1-38-1-38c-0.5-0.1-1.4-0.3-1.9-0.4c-1.6-0.4-2.9-1.5-3.5-3
		c-0.7-1.9-1.2-4.6-1.2-8.1l-0.5,0.1l-8.5,1.7c0,0,0.2,2.7,0.2,5.2c0,0,0,0,0,0.1c0,2.2-1.4,4.1-3.5,4.7c-1.1,0.3-2,0.6-2,0.6
		s-3.1,8.9-3.7,18c-0.6,9.1,5.7,13.1,0,31.3C182.3,115.4,221.9,103.6,219.7,98.8z"/>
	<path class="st7" d="M197.2,36.9c0,0,0.2,2.7,0.2,5.2c4.7-0.1,7.2-4.5,8.3-6.9L197.2,36.9z"/>
	<path class="st4" d="M195.6,39.3c0,0,11.2,0.2,11.2-6.8c0-7,1.5-11.7-5.7-12.1c-7.2-0.4-8.6,2.3-9.1,4.6
		C191.5,27.3,192.7,39.1,195.6,39.3z"/>
	<path class="st1" d="M196.1,20.2c0,0,3.1,8.2,7.8,9.4c4.7,1.2,6.8-0.1,6.8-0.1s-3.6-2.9-4.4-7.9C206.2,21.7,198.4,16.3,196.1,20.2z
		"/>
	<path class="st1" d="M196.8,20.9c0,0-2.3,0.9-3.2,2.5c-0.9,1.6-1.7,3.8-1.5,6.4c0,0-2.3-5.6,0.3-8.7
		C195.1,17.8,196.8,20.9,196.8,20.9z"/>
	<path class="st37" d="M198.1,35c0,0-0.8,1-2.3,0.9c-1.2-0.1-1.7-1.1-1.7-1.1S196.3,34.2,198.1,35z"/>
	<path class="st29" d="M189.8,83l11.1,3.3l3.5-0.9l10-2.5c0,0,1.3-0.4,2.4-3.1c0.2-0.5,0.6-2,1-3.8c0.5-2,0.9-4.4,1.2-6
		c0.4-2.4,1.2-5.5,1.8-8.8v0c0.5-2.4,0.9-4.9,1.1-7.4c0.3-3.4-2.2-6.4-5.6-6.8l-3.7-0.4c-11.8,9.6-20.9,0.8-20.9,0.8
		s-3.1,5.5-5.1,13.5C184.7,68.9,189.8,83,189.8,83z"/>
	<path class="st5" d="M190.5,85.2c0,0-5.5,17.2-5.9,23c-0.4,5.8,10.5,82.9,11,85.6c0.4,2.5,3.6,4.2,3.6,4.2s1.4,0.9,3.5,0.3
		c2.9-0.8,3.8-1.8,3.8-1.8s4.3-55,1.6-74.6c-2.7-19.6-2.7-36.6-2.7-36.6H190.5z"/>
	<path class="st38" d="M213.8,84.7c0,0,8.4,11.3,9.2,18.9c0.8,7.6,1.2,34.4,2.9,41.8c1.7,7.4,7.8,21.7,7.8,44.9c0,0-0.6,1.3-2.6,2
		c-0.6,0.2-1.5,0.4-2.3,0.6c-1.6,0.4-3.3-0.4-4-1.9c-4.1-8.3-17.4-35.3-18-40.9c-0.5-4-4.6-30.1-13.7-45.5
		c-2.2-3.7,1.3-18.4,1.3-18.4L213.8,84.7z"/>
	<path class="st14" d="M197.8,35.2c0,0-0.2,0.8-2.2,0.7c0,0-1.7-0.1-1.7-1C193.9,34.8,195.6,34.2,197.8,35.2z"/>
	<path class="st6" d="M189.6,82.5c0,0,2.2,1.7,6.6,1.8c5.2,0.1,18.3-1.3,18.3-1.3s0.6,1.6,0.6,3.3c0,0-15.9,4-25.1,0.6
		C189.9,86.9,188.8,84.7,189.6,82.5z"/>
	<g>
		<path class="st14" d="M195,88.9c-1.3,0-2.4-1.2-2.4-2.7c0-1.5,1.1-2.7,2.4-2.7c1.3,0,2.4,1.2,2.4,2.7
			C197.4,87.7,196.3,88.9,195,88.9z M195,84.3c-0.9,0-1.6,0.9-1.6,1.9c0,1.1,0.7,1.9,1.6,1.9c0.9,0,1.6-0.9,1.6-1.9
			C196.6,85.1,195.8,84.3,195,84.3z"/>
	</g>
	<path class="st30" d="M208.5,82.5c4.3-2.2,7.3-4.4,9.4-6.4c0.5-2,0.9-4.4,1.2-6c0.4-2.4,1.7-8.5,2.4-11.8l-17.9,25.7
		C203.7,84.1,202.9,85.4,208.5,82.5z"/>
	<path class="st30" d="M202.2,65.4c0,0-7.9,12.6-10.2,14.9c-2.3,2.3,9.4-1.8,9.4-1.8L202.2,65.4z"/>
	<path class="st4" d="M184.1,85.6c-0.3,0.2-5-0.4-6.5,0.6c-1.5,1-3,3.6-2.3,4.6c0.7,0.9,3.9-1.9,4.9-1.9c0.9,0,3.7-0.8,3.7-0.8
		L184.1,85.6z"/>
	<path class="st29" d="M221.6,58.3c0,0-8.4,22.3-16.1,26.9c-7.8,4.6-21.6,3.5-21.6,3.5s-0.4-0.6-0.5-1.9c-0.1-0.6,0.5-1.5,0.5-1.5
		s14-9.4,14.7-11c2.8-7.2,6.9-16.5,8.6-17.7C208.8,55.2,219.6,53.7,221.6,58.3z"/>
</g>
</svg>
