<?xml version="1.0" encoding="utf-8"?>
<!-- Generator: Adobe Illustrator 25.2.0, SVG Export Plug-In . SVG Version: 6.00 Build 0)  -->
<svg version="1.1" id="Layer_1" xmlns="http://www.w3.org/2000/svg" xmlns:xlink="http://www.w3.org/1999/xlink" x="0px" y="0px"
	 viewBox="0 0 67 30" style="enable-background:new 0 0 67 30;" xml:space="preserve">
<style type="text/css">
	.st0{fill:#DCDCDC;}
	.st1{fill:#359427;}
</style>
<path class="st0" d="M24.7,3.2c1.4,0,2.5,1.1,2.5,2.5v18.6c0,1.4-1.1,2.5-2.5,2.5H6.1c-1.4,0-2.5-1.1-2.5-2.5V5.7
	c0-1.4,1.1-2.5,2.5-2.5L24.7,3.2 M24.7,0H6.1C2.9,0,0.4,2.6,0.4,5.7v18.6C0.4,27.5,3,30,6.1,30h18.6c3.2,0,5.7-2.6,5.7-5.7V5.7
	C30.4,2.6,27.8,0,24.7,0L24.7,0z"/>
<g>
	<g>
		<g>
			<path class="st1" d="M59.2,15.3v9c0,1.4-1.1,2.5-2.5,2.5H38.2c-1.4,0-2.5-1.1-2.5-2.5V5.7c0-1.4,1.1-2.5,2.5-2.5h17.1l2.6-3.1
				C57.5,0,57.1,0,56.8,0H38.2c-3.2,0-5.7,2.6-5.7,5.7v18.6c0,3.2,2.6,5.7,5.7,5.7h18.6c3.2,0,5.7-2.6,5.7-5.7V11.5L59.2,15.3z"/>
		</g>
	</g>
	<path class="st1" d="M46.4,25L46.4,25c-0.8,0-1.6-0.4-2.1-1l-5.9-7.3c-0.9-1.1-0.7-2.8,0.4-3.7c1.1-0.9,2.8-0.7,3.7,0.4l3.9,4.8
		L60.2,2c0.9-1.1,2.6-1.3,3.7-0.3c1.1,0.9,1.3,2.6,0.3,3.7L48.4,24C47.9,24.6,47.2,25,46.4,25z"/>
</g>
</svg>
