<svg xmlns="http://www.w3.org/2000/svg" xmlns:xlink="http://www.w3.org/1999/xlink" version="1.1" id="Layer_1" x="0px" y="0px" viewBox="0 0 1000 232.1" style="enable-background:new 0 0 1000 232.1;" xml:space="preserve">
<style xmlns="http://www.w3.org/2000/svg" type="text/css">
	.st0{fill:#4885ed;}
	.st1{fill:#4885ed;}
	.st2{fill:#4885ed;}
</style>


<g>
	<g>
		<g>
			<path class="st0" d="M957.2,232.1C943,208.2,931,197.9,916.5,183c-17-17.5-38.8-33.9-47.5-49.6c-3.7-6.7-5.5-14.7-5.3-22.4     c0.2-7,2.2-13.4,5.7-19.4c3.1-5.3,9.8-8.2,14.1-9.9c11.5-4.5,26.5-8.3,40.7-13.6c20-7.5,34.4-13,46-25.3     c-9.5,13.3-20.5,24.6-40.4,35.9C913.3,88,904,91.9,894.6,100c-8,6.9-7.6,16.9-2.2,27.1c9.4,17.8,25.7,32.3,37.1,49     C941.7,193.7,951.2,211.6,957.2,232.1z"/>
			<path class="st1" d="M876.3,43.5c-6.5,13.7-2.1,27.7,4.7,29.6c8.4,2.5,19.7-6.6,24.9-18c6-13.1,3.2-24.8-5.3-27.1     C892.3,26,882.4,30.5,876.3,43.5z"/>
			<path class="st2" d="M1000,115c-24.5,28.7-62.4,32.2-96.5,22.3c6.1,3,17.8,19.3,28.7,22.2C960.3,167.1,984.2,139.4,1000,115z"/>
			<path class="st2" d="M861.4,94.4c2.8-7.3,5.1-13.5,3-21.3c-8.9-32.6-5.6-55.5,2.2-73.1c-9.5,13.7-15.7,27-18.2,43.5     c-2.4,15.6-0.4,40.5,8.9,64.4C858.1,104,859.7,99.1,861.4,94.4z"/>
		</g>
	</g>
	<g xmlns="http://www.w3.org/2000/svg">
		<path xmlns="http://www.w3.org/2000/svg" class="st1" d="M0,199.7h9.1v-56.9H0v-7.9h50.5v17.2h-9v-8.4H19.4v24.2h25.2v8.5H19.4v23.3h9.9v8.1H0V199.7z"/>
		<path xmlns="http://www.w3.org/2000/svg" class="st1" d="M58.1,200h8.2v-36.8h-8.7v-7.7h18.7V200h8.3v7.7H58.1V200z M66.1,134.9h10.5v10.2H66.1V134.9z"/>
		<path class="st1" d="M93,200h7.8v-34.5c0-1.5-0.8-2.3-2.3-2.3H92v-7.7h11.8c4.5,0,6.7,1.9,6.7,6.1v3.3c0,2.1-0.2,3.6-0.2,3.6h0.2    c2.4-7.6,8.5-13.6,16.5-13.6c1.3,0,2.6,0.2,2.6,0.2v9.9c0,0-1.2-0.3-2.9-0.3c-11.2,0-15.9,11.3-15.9,21.5V200h7.7v7.7H93V200z"/>
		<path class="st1" d="M135.7,190.9h8.8v3.4c0,4.4,6.2,6.5,12,6.5c5.9,0,10.5-2.4,10.5-6.7c0-5.3-5.8-6.9-13-9.5c-7.7-2.9-16.3-6.4-16.3-15.9    c0-10.3,10.2-14.5,19.3-14.5c7.3,0,18.1,2.9,18.1,10.5v6.3h-8.8v-3.4c0-3.2-4.1-5.4-9.2-5.4c-5,0-9.3,2.1-9.3,6.3    c0,5,5.8,7,12.1,9.2c8.1,2.7,17.2,6.1,17.2,15.8c0,9.9-9.1,15.4-21,15.4c-9.5,0-20.4-4.2-20.4-12.5L135.7,190.9L135.7,190.9z"/>
		<path class="st1" d="M191.8,163.3H183v-7.7h9v-14.4h9.8v14.4h12.5v7.7h-12.5v24.5c0,10.6,7.2,12,11.2,12c1.4,0,2.4-0.1,2.4-0.1v8.4    c0,0-1.4,0.2-3.6,0.2c-6.6,0-19.9-2.1-19.9-19.5L191.8,163.3L191.8,163.3z"/>
		<path class="st1" d="M260.9,133.6c21.2,0,37.6,15.6,37.6,36.8c0,9.5-3.2,18-8.8,24.6l8.7,8.3l-5.9,6.4l-8.6-8.6c-6.3,5.2-14.2,8-23.1,8    c-21.2,0-37.4-16.8-37.4-38.1C223.4,149.8,239.5,133.6,260.9,133.6z M260.9,199.8c5.4,0,11.7-1.9,15.9-5.5l-10.7-10.6l5.9-6.3    l10.6,10.7c3.3-4.7,5.5-10.8,5.5-17.3c0-15.9-11.9-28.1-27.2-28.1c-15.1,0-26.8,12.1-26.8,28.2    C234.1,187.2,245.8,199.8,260.9,199.8z"/>
		<path class="st1" d="M314.4,163.3h-8.8v-7.7h18.8V187c0,7.2,1.4,13,9.8,13c10.4,0,16.9-10,16.9-20.3v-16.3h-8.8v-7.7h18.8V198    c0,1.4,0.8,2.3,2.3,2.3h5.5v7.6h-10.8c-4.5,0-6.6-2.1-6.6-5.8v-2.3c0-1.8,0.2-3.1,0.2-3.1h-0.2c-1,2.8-6.9,12.4-19.9,12.4    c-11.3,0-17.1-6.2-17.1-20L314.4,163.3L314.4,163.3z"/>
		<path class="st1" d="M404.1,154.3c15.6,0,28.2,11.5,28.2,27.3c0,15.9-12.6,27.5-28.2,27.5s-28.2-11.6-28.2-27.5S388.5,154.3,404.1,154.3z     M404.1,200.3c9.8,0,18-7.8,18-18.8c0-10.8-8.2-18.6-18-18.6c-9.9,0-18,7.7-18,18.6C386.2,192.5,394.2,200.3,404.1,200.3z"/>
		<path class="st1" d="M447.1,163.3h-8.8v-7.7h9v-14.4h9.8v14.4h12.5v7.7h-12.5v24.5c0,10.6,7.2,12,11.2,12c1.4,0,2.4-0.1,2.4-0.1v8.4    c0,0-1.4,0.2-3.6,0.2c-6.6,0-19.9-2.1-19.9-19.5v-25.5H447.1z"/>
		<path class="st1" d="M504,154.3c14.9,0,22.6,10.9,22.6,24.5c0,1.3-0.3,3.8-0.3,3.8h-38.2c0.6,11.6,8.8,17.8,18.1,17.8c9.1,0,15.6-5.9,15.6-5.9    l4.1,7.3c0,0-7.8,7.2-20.3,7.2c-16.4,0-27.7-11.9-27.7-27.4C477.8,165,489.1,154.3,504,154.3z M516.3,176.2    c-0.3-9.2-5.9-13.9-12.5-13.9c-7.6,0-13.8,5.2-15.3,13.9H516.3z"/>
		<path class="st1" d="M535.8,199.7h9.1v-56.9h-9.1v-7.9h28.6v7.9h-9.2v24.3H593v-24.3h-9.2v-7.9h28.6v7.9h-9.1v56.9h9.1v8.1h-28.6    v-8.1h9.2v-24.2h-37.8v24.2h9.2v8.1h-28.6L535.8,199.7L535.8,199.7z"/>
		<path class="st1" d="M646.6,154.3c14.9,0,22.6,10.9,22.6,24.5c0,1.3-0.3,3.8-0.3,3.8h-38.2c0.6,11.6,8.8,17.8,18.1,17.8    c9.1,0,15.6-5.9,15.6-5.9l4.1,7.3c0,0-7.8,7.2-20.3,7.2c-16.4,0-27.7-11.9-27.7-27.4C620.4,165,631.7,154.3,646.6,154.3z     M658.8,176.2c-0.3-9.2-5.9-13.9-12.5-13.9c-7.6,0-13.8,5.2-15.3,13.9H658.8z"/>
		<path class="st1" d="M707.4,175.7h3.3v-2c0-8.3-4.7-11.2-11.2-11.2c-8.3,0-15,5.1-15,5.1l-4-7.1c0,0,7.6-6.2,19.8-6.2    c13.3,0,20.3,6.9,20.3,20.1v23.3c0,1.5,0.8,2.3,2.3,2.3h5.3v7.7h-10.4c-4.6,0-6.5-2.3-6.5-5.7v-0.7c0-2.1,0.4-3.4,0.4-3.4h-0.2    c0,0-4.5,11.1-17.2,11.1c-8.7,0-17.4-5.1-17.4-15.8C676.9,176.8,698.7,175.7,707.4,175.7z M696.4,201.3c8.9,0,14.4-9.1,14.4-16.9    v-2.2h-2.6c-4.8,0-21.2,0.2-21.2,10.2C687,197,690.4,201.3,696.4,201.3z"/>
		<path class="st1" d="M739,142.6h-8.7v-7.7H749v57.4c0,4.4,1,7.4,5.6,7.4c1.7,0,2.8-0.1,2.8-0.1l-0.1,8.3c0,0-2.1,0.2-4.4,0.2    c-7.4,0-13.8-3-13.8-15.2L739,142.6L739,142.6z"/>
		<path class="st1" d="M770.6,163.3h-8.8v-7.7h9v-14.4h9.8v14.4h12.5v7.7h-12.5v24.5c0,10.6,7.2,12,11.2,12c1.4,0,2.4-0.1,2.4-0.1    v8.4c0,0-1.4,0.2-3.6,0.2c-6.6,0-19.9-2.1-19.9-19.5v-25.5H770.6z"/>
		<path class="st1" d="M800.4,200h8.3v-57.4h-8.8v-7.7h18.7V162c0,2.5-0.3,4.3-0.3,4.3h0.2c2.3-5.1,9.1-12,19.5-12    c12.3,0,18,6.7,18,20V200h8.2v7.7H846v-31.2c0-7.3-1.5-13.1-9.9-13.1c-10.2,0-17.5,8.7-17.5,19.8V200h8.3v7.7h-26.4L800.4,200    L800.4,200z"/>
	</g>
</g>
</svg>